<?xml version="1.0" encoding="UTF-8" standalone="no"?> <!-- Created with Vectornator for iOS (http://vectornator.io/) --><!DOCTYPE svg PUBLIC "-//W3C//DTD SVG 1.1//EN" "http://www.w3.org/Graphics/SVG/1.1/DTD/svg11.dtd">
<svg height="100%" style="fill-rule:nonzero;clip-rule:evenodd;stroke-linecap:round;stroke-linejoin:round;" version="1.1" viewBox="0 0 1088 687.962" width="100%" xml:space="preserve" xmlns="http://www.w3.org/2000/svg" xmlns:vectornator="http://vectornator.io" xmlns:xlink="http://www.w3.org/1999/xlink">
<metadata>
<vectornator:setting key="IsTimeLapseWatermarkDisabled" value="false"/>
<vectornator:setting key="UndoHistoryDisabled" value="true"/>
<vectornator:setting key="VNDimensionsVisible" value="true"/>
<vectornator:setting key="VNSnapToGuides" value="true"/>
<vectornator:setting key="WDCMYKEnabledKey" value="false"/>
<vectornator:setting key="WDDisplayWhiteBackground" value="false"/>
<vectornator:setting key="WDDynamicGuides" value="false"/>
<vectornator:setting key="WDGuidesVisible" value="true"/>
<vectornator:setting key="WDIsolateActiveLayer" value="false"/>
<vectornator:setting key="WDOutlineMode" value="false"/>
<vectornator:setting key="WDRulersVisible" value="true"/>
<vectornator:setting key="WDSnapToEdges" value="false"/>
<vectornator:setting key="WDSnapToGrid" value="false"/>
<vectornator:setting key="WDSnapToPoints" value="false"/>
<vectornator:setting key="WDUnits" value="Points"/>
</metadata>
<defs/>
<g id="Group 12" vectornator:layerName="Group 12">
<g opacity="1">
<path d="M961.758 454.442C956.488 499.592 945.538 535.842 930.508 564.752C910.508 603.272 876.298 618.792 845.738 635.032C836.907 639.716 827.726 643.708 818.278 646.972C762.668 666.272 700.428 661.152 651.538 650.962C617.247 643.809 582.439 639.408 547.448 637.802C537.468 637.352 527.478 637.129 517.478 637.132C502.058 637.152 224.408 642.422 156.808 505.562C140.118 471.802 128.678 430.562 124.568 380.292C112.938 238.172 176.858 144.832 259.308 83.822C415.278-31.588 629.068-26.748 782.738 91.702C885.098 170.602 980.938 290.012 961.758 454.442Z" fill="#3f3d56" opacity="1"/>
<path d="M930.508 564.752C910.508 603.272 883.298 628.792 852.738 645.032C843.907 649.716 834.726 653.708 825.278 656.972C769.668 676.272 707.428 671.152 658.538 660.962C624.247 653.809 589.439 649.408 554.448 647.802C544.468 647.352 534.478 647.129 524.478 647.132C509.058 647.152 493.641 647.725 478.228 648.852C378.058 656.212 224.408 642.422 156.808 505.562L325.948 177.962L388.898 339.581L408.988 391.171L464.358 315.191L492.948 275.962L623.148 425.232L659.948 343.962L914.728 551.881L928.938 563.471L930.508 564.752Z" fill="#f2f2f2" opacity="1"/>
<path d="M301.948 282.962L327.948 225.962L363.948 308.962L332.948 248.962L301.948 282.962Z" fill="#000000" opacity="0.1"/>
<path d="M554.448 647.802C544.468 647.352 534.478 647.129 524.478 647.132L408.988 391.172L554.448 647.802Z" fill="#000000" opacity="0.1"/>
<path d="M464.359 315.191L492.948 292.962L622.948 442.962L490.948 314.962L464.359 315.191Z" fill="#000000" opacity="0.1"/>
<path d="M852.738 645.032C843.907 649.716 834.726 653.708 825.278 656.972L623.148 425.232L852.738 645.032Z" fill="#000000" opacity="0.1"/>
<path d="M478.948 101.962C478.948 100.305 480.291 98.962 481.948 98.962C483.604 98.962 484.948 100.305 484.948 101.962C484.948 103.619 483.604 104.962 481.948 104.962C480.291 104.962 478.948 103.619 478.948 101.962Z" fill="#f2f2f2" opacity="1"/>
<path d="M395.948 204.962C395.948 203.305 397.291 201.962 398.948 201.962C400.604 201.962 401.948 203.305 401.948 204.962C401.948 206.619 400.604 207.962 398.948 207.962C397.291 207.962 395.948 206.619 395.948 204.962Z" fill="#f2f2f2" opacity="1"/>
<path d="M599.948 222.962C599.948 221.857 600.843 220.962 601.948 220.962C603.052 220.962 603.948 221.857 603.948 222.962C603.948 224.067 603.052 224.962 601.948 224.962C600.843 224.962 599.948 224.067 599.948 222.962Z" fill="#f2f2f2" opacity="1"/>
<path d="M179.948 267.962C179.948 266.857 180.843 265.962 181.948 265.962C183.052 265.962 183.948 266.857 183.948 267.962C183.948 269.067 183.052 269.962 181.948 269.962C180.843 269.962 179.948 269.067 179.948 267.962Z" fill="#f2f2f2" opacity="1"/>
<path d="M611.948 98.962C611.948 97.8574 612.843 96.962 613.948 96.962C615.052 96.962 615.948 97.8574 615.948 98.962C615.948 100.067 615.052 100.962 613.948 100.962C612.843 100.962 611.948 100.067 611.948 98.962Z" fill="#f2f2f2" opacity="1"/>
<path d="M735.948 194.962C735.948 193.857 736.843 192.962 737.948 192.962C739.052 192.962 739.948 193.857 739.948 194.962C739.948 196.067 739.052 196.962 737.948 196.962C736.843 196.962 735.948 196.067 735.948 194.962Z" fill="#f2f2f2" opacity="1"/>
<path d="M857.948 346.962C857.948 345.857 858.843 344.962 859.948 344.962C861.052 344.962 861.948 345.857 861.948 346.962C861.948 348.067 861.052 348.962 859.948 348.962C858.843 348.962 857.948 348.067 857.948 346.962Z" fill="#f2f2f2" opacity="1"/>
<path d="M305.948 121.222L303.188 121.222L303.188 118.462L301.708 118.462L301.708 121.222L298.948 121.222L298.948 122.7L301.708 122.7L301.708 125.459L303.188 125.459L303.188 122.7L305.948 122.7L305.948 121.222Z" fill="#f2f2f2" opacity="1"/>
<path d="M847.948 424.222L845.188 424.222L845.188 421.462L843.708 421.462L843.708 424.222L840.948 424.222L840.948 425.7L843.708 425.7L843.708 428.459L845.188 428.459L845.188 425.7L847.948 425.7L847.948 424.222Z" fill="#f2f2f2" opacity="1"/>
<path d="M1087.95 613.962C1087.95 630.531 844.391 687.962 543.948 687.962C243.505 687.962-0.0524311 630.531-0.0524311 613.962C-0.0524311 597.393 243.505 627.962 543.948 627.962C844.391 627.962 1087.95 597.394 1087.95 613.962Z" fill="#3f3d56" opacity="1"/>
<path d="M1087.95 613.962C1087.95 630.531 844.391 687.962 543.948 687.962C243.505 687.962-0.0524311 630.531-0.0524311 613.962C-0.0524311 597.393 243.505 627.962 543.948 627.962C844.391 627.962 1087.95 597.394 1087.95 613.962Z" fill="#000000" opacity="0.1"/>
<path d="M-0.0524311 613.962C-0.0524311 597.393 243.505 583.962 543.948 583.962C844.391 583.962 1087.95 597.393 1087.95 613.962C1087.95 630.531 844.391 643.962 543.948 643.962C243.505 643.962-0.0524311 630.531-0.0524311 613.962Z" fill="#3f3d56" opacity="1"/>
<path d="M567.948 571.962C567.948 605.099 553.173 595.962 534.948 595.962C516.723 595.962 501.948 605.099 501.948 571.962C501.948 538.825 534.948 475.962 534.948 475.962C534.948 475.962 567.948 538.825 567.948 571.962Z" fill="#ff6584" opacity="1"/>
<path d="M549.948 584.641C549.948 599.703 543.232 595.55 534.948 595.55C526.664 595.55 519.948 599.703 519.948 584.641C519.948 569.579 534.948 541.005 534.948 541.005C534.948 541.005 549.948 569.581 549.948 584.641Z" fill="#000000" opacity="0.1"/>
<path d="M497.948 604.962L571.948 604.962C576.918 604.962 580.948 608.991 580.948 613.962L580.948 613.962C580.948 618.933 576.918 622.962 571.948 622.962L497.948 622.962C492.977 622.962 488.948 618.933 488.948 613.962L488.948 613.962C488.948 608.991 492.977 604.962 497.948 604.962Z" fill="#2f2e41" opacity="1"/>
<path d="M497.948 586.962L571.948 586.962C576.918 586.962 580.948 590.991 580.948 595.962L580.948 595.962C580.948 600.933 576.918 604.962 571.948 604.962L497.948 604.962C492.977 604.962 488.948 600.933 488.948 595.962L488.948 595.962C488.948 590.991 492.977 586.962 497.948 586.962Z" fill="#2f2e41" opacity="1"/>
<path d="M136.948 490.528C136.948 545.871 171.667 590.654 214.574 590.654" fill="#3f3d56" opacity="1"/>
<path d="M214.574 590.654C214.574 534.689 253.319 489.403 301.2 489.403" fill="#6c63ff" opacity="1"/>
<path d="M165.073 495.545C165.073 548.115 187.213 590.654 214.573 590.654" fill="#6c63ff" opacity="1"/>
<path d="M214.574 590.654C214.574 519.143 259.357 461.277 314.7 461.277" fill="#3f3d56" opacity="1"/>
<path d="M198.248 591.36C198.248 591.36 209.257 591.021 212.574 588.66C215.891 586.299 229.508 583.477 230.331 587.265C231.154 591.053 246.875 606.109 234.446 606.21C222.017 606.311 205.567 604.274 202.256 602.257C198.945 600.24 198.248 591.36 198.248 591.36Z" fill="#a8a8a8" opacity="1"/>
<path d="M234.664 604.89C222.235 604.99 205.785 602.954 202.474 600.937C199.952 599.401 198.947 593.889 198.611 591.346L198.243 591.36C198.243 591.36 198.943 600.239 202.252 602.26C205.561 604.281 222.013 606.313 234.442 606.213C238.03 606.184 239.269 604.908 239.201 603.013C238.703 604.155 237.334 604.868 234.664 604.89Z" fill="#000000" opacity="0.2"/>
<path d="M721.377 527.062C721.377 565.091 745.234 595.862 774.718 595.862" fill="#3f3d56" opacity="1"/>
<path d="M774.717 595.863C774.717 557.407 801.34 526.288 834.242 526.288" fill="#6c63ff" opacity="1"/>
<path d="M740.703 530.509C740.703 566.633 755.916 595.863 774.717 595.863" fill="#6c63ff" opacity="1"/>
<path d="M774.717 595.863C774.717 546.724 805.49 506.963 843.517 506.963" fill="#3f3d56" opacity="1"/>
<path d="M763.496 596.348C763.496 596.348 771.061 596.115 773.34 594.492C775.619 592.869 784.976 590.93 785.54 593.534C786.104 596.138 796.908 606.483 788.368 606.552C779.828 606.621 768.524 605.222 766.249 603.836C763.974 602.45 763.496 596.348 763.496 596.348Z" fill="#a8a8a8" opacity="1"/>
<path d="M788.522 605.645C779.982 605.714 768.678 604.315 766.403 602.929C764.67 601.873 763.98 598.086 763.749 596.339L763.496 596.349C763.496 596.349 763.975 602.449 766.251 603.836C768.527 605.223 779.83 606.621 788.37 606.552C790.835 606.532 791.687 605.652 791.64 604.352C791.297 605.14 790.357 605.63 788.522 605.645Z" fill="#000000" opacity="0.2"/>
<path d="M893.761 618.699C893.761 618.699 905.121 616.97 908.261 614.108C911.401 611.246 925.151 606.62 926.478 610.441C927.805 614.262 945.972 627.888 933.111 629.548C920.25 631.208 902.958 631.157 899.276 629.483C895.594 627.809 893.761 618.699 893.761 618.699Z" fill="#a8a8a8" opacity="1"/>
<path d="M933.176 628.154C920.316 629.813 903.023 629.763 899.341 628.089C896.541 626.814 894.806 621.231 894.141 618.639L893.762 618.7C893.762 618.7 895.595 627.809 899.278 629.483C902.961 631.157 920.253 631.208 933.113 629.548C936.825 629.069 937.949 627.592 937.642 625.642C937.267 626.888 935.939 627.798 933.176 628.154Z" fill="#000000" opacity="0.2"/>
<path d="M614.208 617.881C614.208 617.881 623.795 616.422 626.445 614.006C629.095 611.59 640.7 607.686 641.819 610.911C642.938 614.136 658.271 625.636 647.419 627.036C636.567 628.436 621.971 628.394 618.864 626.981C615.757 625.568 614.208 617.881 614.208 617.881Z" fill="#a8a8a8" opacity="1"/>
<path d="M647.472 625.856C636.619 627.256 622.024 627.214 618.917 625.801C616.55 624.725 615.09 620.013 614.527 617.825L614.207 617.876C614.207 617.876 615.754 625.563 618.862 626.976C621.97 628.389 636.562 628.432 647.417 627.031C650.55 626.631 651.498 625.38 651.239 623.731C650.925 624.788 649.804 625.556 647.472 625.856Z" fill="#000000" opacity="0.2"/>
<path d="M122.337 613.09C122.337 613.09 129.8 611.954 131.864 610.074C133.928 608.194 142.964 605.154 143.833 607.665C144.702 610.176 156.641 619.128 148.191 620.218C139.741 621.308 128.38 621.275 125.961 620.175C123.542 619.075 122.337 613.09 122.337 613.09Z" fill="#a8a8a8" opacity="1"/>
<path d="M148.233 619.302C139.784 620.392 128.422 620.359 126.003 619.259C124.161 618.421 123.024 614.753 122.586 613.05L122.337 613.09C122.337 613.09 123.537 619.074 125.961 620.175C128.385 621.276 139.742 621.308 148.191 620.218C150.63 619.903 151.368 618.933 151.167 617.652C150.921 618.47 150.048 619.068 148.233 619.302Z" fill="#000000" opacity="0.2"/>
<path d="M383.648 601.318C383.648 631.538 341.524 622.191 289.948 622.191C238.372 622.191 196.874 631.538 196.874 601.318C196.874 571.098 238.992 564.525 290.568 564.525C342.144 564.525 383.648 571.098 383.648 601.318Z" fill="#000000" opacity="0.1"/>
<path d="M383.648 593.881C383.648 624.101 341.524 614.754 289.948 614.754C238.372 614.754 196.874 624.101 196.874 593.881C196.874 563.661 238.988 557.081 290.564 557.081C342.14 557.081 383.648 563.657 383.648 593.881Z" fill="#3f3d56" opacity="1"/>
</g>
<g opacity="1">
<path d="M47.7304 152.728L32.789 158.353L47.7304 163.925L47.7304 167.142L29.1504 159.795L29.1504 156.877L47.7304 149.529L47.7304 152.728Z" fill="#5daef9" opacity="1"/>
<path d="M51.0351 149.933L54.3926 149.933L60.1054 166.457L65.8359 149.933L69.1933 149.933L62.1972 169.621L58.0312 169.621L51.0351 149.933Z" fill="#5daef9" opacity="1"/>
<path d="M88.0547 150.619L88.0547 153.783C87.1289 153.244 86.1972 152.839 85.2597 152.57C84.3222 152.3 83.3672 152.166 82.3945 152.166C80.9297 152.166 79.8369 152.403 79.1162 152.878C78.3955 153.352 78.0351 154.076 78.0351 155.048C78.0351 155.927 78.3047 156.584 78.8437 157.017C79.3828 157.451 80.7246 157.873 82.8691 158.283L84.1699 158.529C85.7754 158.834 86.9912 159.443 87.8174 160.357C88.6435 161.271 89.0566 162.461 89.0566 163.925C89.0566 165.871 88.3652 167.391 86.9824 168.487C85.5996 169.583 83.6777 170.13 81.2168 170.13C80.2441 170.13 79.2246 170.028 78.1582 169.823C77.0918 169.618 75.9375 169.31 74.6953 168.9L74.6953 165.56C75.9023 166.181 77.0566 166.647 78.1582 166.958C79.2597 167.268 80.3027 167.423 81.2871 167.423C82.7168 167.423 83.8242 167.133 84.6094 166.553C85.3945 165.973 85.7871 165.162 85.7871 164.119C85.7871 162.619 84.3515 161.582 81.4804 161.007L81.3398 160.972L80.1269 160.726C78.2637 160.363 76.9043 159.751 76.0488 158.889C75.1933 158.028 74.7656 156.853 74.7656 155.365C74.7656 153.478 75.4043 152.022 76.6816 150.997C77.959 149.971 79.7812 149.459 82.1484 149.459C83.2031 149.459 84.2168 149.555 85.1894 149.749C86.1621 149.942 87.1172 150.232 88.0547 150.619Z" fill="#5daef9" opacity="1"/>
<path d="M103.418 144.343L103.418 149.933L110.766 149.933L110.766 152.447L103.418 152.447L103.418 163.134C103.418 164.588 103.693 165.601 104.244 166.175C104.795 166.75 105.756 167.037 107.127 167.037L110.766 167.037L110.766 169.621L106.811 169.621C104.385 169.621 102.674 169.134 101.678 168.162C100.682 167.189 100.184 165.513 100.184 163.134L100.184 152.447L94.9277 152.447L94.9277 149.933L100.184 149.933L100.184 144.343L103.418 144.343Z" fill="#5daef9" opacity="1"/>
<path d="M126.639 159.724L125.566 159.724C123.68 159.724 122.259 160.055 121.304 160.717C120.349 161.38 119.871 162.367 119.871 163.679C119.871 164.863 120.228 165.783 120.943 166.439C121.658 167.095 122.648 167.423 123.914 167.423C125.695 167.423 127.096 166.805 128.115 165.569C129.135 164.333 129.65 162.625 129.662 160.445L129.662 159.724L126.639 159.724ZM132.914 158.388L132.914 169.621L129.662 169.621L129.662 166.703C128.971 167.875 128.101 168.739 127.052 169.296C126.003 169.852 124.728 170.13 123.228 170.13C121.225 170.13 119.625 169.565 118.43 168.434C117.234 167.303 116.637 165.789 116.637 163.89C116.637 161.699 117.372 160.035 118.843 158.898C120.313 157.761 122.473 157.193 125.32 157.193L129.662 157.193L129.662 156.683C129.65 155.113 129.252 153.973 128.467 153.264C127.682 152.555 126.428 152.201 124.705 152.201C123.603 152.201 122.49 152.359 121.365 152.675C120.24 152.992 119.145 153.455 118.078 154.064L118.078 150.83C119.273 150.373 120.419 150.03 121.515 149.801C122.61 149.573 123.674 149.459 124.705 149.459C126.334 149.459 127.726 149.699 128.88 150.179C130.034 150.66 130.969 151.38 131.684 152.341C132.129 152.927 132.445 153.651 132.633 154.512C132.82 155.374 132.914 156.666 132.914 158.388Z" fill="#5daef9" opacity="1"/>
<path d="M154.623 168.619C153.756 169.123 152.862 169.501 151.942 169.753C151.022 170.005 150.082 170.13 149.121 170.13C146.074 170.13 143.692 169.216 141.976 167.388C140.259 165.56 139.4 163.029 139.4 159.795C139.4 156.56 140.259 154.029 141.976 152.201C143.692 150.373 146.074 149.459 149.121 149.459C150.07 149.459 150.996 149.582 151.898 149.828C152.801 150.074 153.709 150.455 154.623 150.97L154.623 154.363C153.768 153.601 152.909 153.05 152.048 152.711C151.187 152.371 150.211 152.201 149.121 152.201C147.094 152.201 145.535 152.857 144.445 154.17C143.355 155.482 142.811 157.357 142.811 159.795C142.811 162.22 143.358 164.092 144.454 165.411C145.55 166.729 147.105 167.388 149.121 167.388C150.246 167.388 151.254 167.215 152.145 166.87C153.035 166.524 153.861 165.988 154.623 165.261L154.623 168.619Z" fill="#5daef9" opacity="1"/>
<path d="M161.795 142.269L165.135 142.269L165.135 158.107L173.625 149.933L177.562 149.933L169.811 157.351L178.775 169.621L174.82 169.621L167.543 159.461L165.135 161.728L165.135 169.621L161.795 169.621L161.795 142.269Z" fill="#5daef9" opacity="1"/>
<path d="M234.006 142.269L234.006 144.959L230.332 144.959C229.172 144.959 228.366 145.196 227.915 145.671C227.464 146.145 227.238 146.986 227.238 148.193L227.238 149.933L234.006 149.933L234.006 152.447L227.238 152.447L227.238 169.621L224.004 169.621L224.004 152.447L218.748 152.447L218.748 149.933L224.004 149.933L224.004 148.562C224.004 146.406 224.499 144.818 225.489 143.798C226.479 142.779 228.023 142.269 230.121 142.269L234.006 142.269Z" fill="#5daef9" opacity="1"/>
<path d="M257.297 153.994C256.605 153.455 255.902 153.062 255.187 152.816C254.473 152.57 253.687 152.447 252.832 152.447C250.816 152.447 249.275 153.08 248.209 154.345C247.143 155.611 246.609 157.439 246.609 159.83L246.609 169.621L243.357 169.621L243.357 149.933L246.609 149.933L246.609 153.783C247.148 152.388 247.978 151.319 249.097 150.575C250.216 149.831 251.543 149.459 253.078 149.459C253.875 149.459 254.619 149.558 255.311 149.757C256.002 149.957 256.664 150.267 257.297 150.689L257.297 153.994Z" fill="#5daef9" opacity="1"/>
<path d="M271.008 159.724L269.936 159.724C268.049 159.724 266.628 160.055 265.673 160.717C264.718 161.38 264.24 162.367 264.24 163.679C264.24 164.863 264.598 165.783 265.312 166.439C266.027 167.095 267.018 167.423 268.283 167.423C270.064 167.423 271.465 166.805 272.484 165.569C273.504 164.333 274.02 162.625 274.031 160.445L274.031 159.724L271.008 159.724ZM277.283 158.388L277.283 169.621L274.031 169.621L274.031 166.703C273.34 167.875 272.47 168.739 271.421 169.296C270.372 169.852 269.098 170.13 267.598 170.13C265.594 170.13 263.994 169.565 262.799 168.434C261.603 167.303 261.006 165.789 261.006 163.89C261.006 161.699 261.741 160.035 263.212 158.898C264.683 157.761 266.842 157.193 269.689 157.193L274.031 157.193L274.031 156.683C274.02 155.113 273.621 153.973 272.836 153.264C272.051 152.555 270.797 152.201 269.074 152.201C267.973 152.201 266.859 152.359 265.734 152.675C264.609 152.992 263.514 153.455 262.447 154.064L262.447 150.83C263.643 150.373 264.788 150.03 265.884 149.801C266.979 149.573 268.043 149.459 269.074 149.459C270.703 149.459 272.095 149.699 273.249 150.179C274.403 150.66 275.338 151.38 276.053 152.341C276.498 152.927 276.814 153.651 277.002 154.512C277.189 155.374 277.283 156.666 277.283 158.388Z" fill="#5daef9" opacity="1"/>
<path d="M292.225 151.937C292.623 151.093 293.13 150.469 293.745 150.065C294.36 149.661 295.102 149.459 295.969 149.459C297.551 149.459 298.667 150.071 299.317 151.296C299.968 152.52 300.293 154.826 300.293 158.213L300.293 169.621L297.34 169.621L297.34 158.353C297.34 155.576 297.185 153.85 296.874 153.176C296.563 152.503 295.998 152.166 295.178 152.166C294.24 152.166 293.599 152.526 293.253 153.247C292.907 153.967 292.734 155.67 292.734 158.353L292.734 169.621L289.781 169.621L289.781 158.353C289.781 155.541 289.614 153.806 289.28 153.15C288.946 152.494 288.346 152.166 287.478 152.166C286.623 152.166 286.028 152.526 285.694 153.247C285.36 153.967 285.193 155.67 285.193 158.353L285.193 169.621L282.258 169.621L282.258 149.933L285.193 149.933L285.193 151.621C285.58 150.918 286.063 150.381 286.644 150.012C287.224 149.643 287.883 149.459 288.621 149.459C289.512 149.459 290.253 149.664 290.845 150.074C291.437 150.484 291.896 151.105 292.225 151.937Z" fill="#5daef9" opacity="1"/>
<path d="M321.703 158.16L321.703 159.742L307.693 159.742L307.693 159.847C307.6 162.531 308.112 164.459 309.231 165.63C310.351 166.802 311.93 167.388 313.969 167.388C315 167.388 316.078 167.224 317.203 166.896C318.328 166.568 319.529 166.07 320.807 165.402L320.807 168.619C319.576 169.123 318.39 169.501 317.247 169.753C316.104 170.005 315 170.13 313.934 170.13C310.875 170.13 308.484 169.213 306.762 167.38C305.039 165.546 304.178 163.017 304.178 159.795C304.178 156.654 305.021 154.146 306.709 152.271C308.396 150.396 310.646 149.459 313.459 149.459C315.967 149.459 317.944 150.308 319.392 152.007C320.839 153.707 321.609 155.757 321.703 158.16ZM318.469 157.211C318.328 155.851 317.833 154.676 316.983 153.686C316.134 152.696 314.912 152.201 313.318 152.201C311.76 152.201 310.477 152.716 309.469 153.748C308.461 154.779 307.91 155.939 307.816 157.228L318.469 157.211Z" fill="#5daef9" opacity="1"/>
<path d="M325.236 160.832L343.816 160.832L343.816 163.802L325.236 163.802L325.236 160.832ZM325.236 152.552L343.816 152.552L343.816 155.523L325.236 155.523L325.236 152.552Z" fill="#5daef9" opacity="1"/>
<path d="M361.605 152.623L357.176 152.623L357.176 148.984L360.621 142.269L363.328 142.269L361.605 148.984L361.605 152.623ZM353.537 152.623L349.072 152.623L349.072 148.984L352.57 142.269L355.26 142.269L353.537 148.984L353.537 152.623Z" fill="#5daef9" opacity="1"/>
<path d="M378.92 151.937C379.318 151.093 379.825 150.469 380.44 150.065C381.056 149.661 381.797 149.459 382.664 149.459C384.246 149.459 385.362 150.071 386.013 151.296C386.663 152.52 386.988 154.826 386.988 158.213L386.988 169.621L384.035 169.621L384.035 158.353C384.035 155.576 383.88 153.85 383.569 153.176C383.259 152.503 382.693 152.166 381.873 152.166C380.936 152.166 380.294 152.526 379.948 153.247C379.603 153.967 379.43 155.67 379.43 158.353L379.43 169.621L376.477 169.621L376.477 158.353C376.477 155.541 376.31 153.806 375.976 153.15C375.642 152.494 375.041 152.166 374.174 152.166C373.318 152.166 372.724 152.526 372.39 153.247C372.056 153.967 371.889 155.67 371.889 158.353L371.889 169.621L368.953 169.621L368.953 149.933L371.889 149.933L371.889 151.621C372.275 150.918 372.759 150.381 373.339 150.012C373.919 149.643 374.578 149.459 375.316 149.459C376.207 149.459 376.948 149.664 377.54 150.074C378.132 150.484 378.592 151.105 378.92 151.937Z" fill="#5daef9" opacity="1"/>
<path d="M401.051 159.724L399.978 159.724C398.092 159.724 396.671 160.055 395.716 160.717C394.761 161.38 394.283 162.367 394.283 163.679C394.283 164.863 394.641 165.783 395.355 166.439C396.07 167.095 397.061 167.423 398.326 167.423C400.107 167.423 401.508 166.805 402.527 165.569C403.547 164.333 404.062 162.625 404.074 160.445L404.074 159.724L401.051 159.724ZM407.326 158.388L407.326 169.621L404.074 169.621L404.074 166.703C403.383 167.875 402.513 168.739 401.464 169.296C400.415 169.852 399.141 170.13 397.641 170.13C395.637 170.13 394.037 169.565 392.842 168.434C391.646 167.303 391.049 165.789 391.049 163.89C391.049 161.699 391.784 160.035 393.255 158.898C394.726 157.761 396.885 157.193 399.732 157.193L404.074 157.193L404.074 156.683C404.062 155.113 403.664 153.973 402.879 153.264C402.094 152.555 400.84 152.201 399.117 152.201C398.016 152.201 396.902 152.359 395.777 152.675C394.652 152.992 393.557 153.455 392.49 154.064L392.49 150.83C393.686 150.373 394.831 150.03 395.927 149.801C397.022 149.573 398.086 149.459 399.117 149.459C400.746 149.459 402.138 149.699 403.292 150.179C404.446 150.66 405.381 151.38 406.096 152.341C406.541 152.927 406.857 153.651 407.045 154.512C407.232 155.374 407.326 156.666 407.326 158.388Z" fill="#5daef9" opacity="1"/>
<path d="M430.037 149.933L422.988 159.355L430.723 169.621L426.978 169.621L421.213 161.728L415.465 169.621L411.721 169.621L419.455 159.355L412.406 149.933L415.992 149.933L421.213 157.052L426.398 149.933L430.037 149.933Z" fill="#5daef9" opacity="1"/>
<path d="M445.559 142.269L449.988 142.269L449.988 145.89L446.525 152.623L443.836 152.623L445.559 145.89L445.559 142.269ZM437.49 142.269L441.92 142.269L441.92 145.89L438.475 152.623L435.768 152.623L437.49 145.89L437.49 142.269Z" fill="#5daef9" opacity="1"/>
<path d="M137.414 206.795C137.414 204.287 137.016 202.394 136.219 201.117C135.422 199.839 134.244 199.201 132.686 199.201C131.115 199.201 129.926 199.842 129.117 201.126C128.309 202.409 127.904 204.298 127.904 206.795C127.904 209.279 128.309 211.166 129.117 212.455C129.926 213.744 131.115 214.388 132.686 214.388C134.244 214.388 135.422 213.75 136.219 212.472C137.016 211.195 137.414 209.302 137.414 206.795ZM127.904 199.447C128.42 198.486 129.132 197.748 130.04 197.232C130.948 196.716 132 196.459 133.195 196.459C135.562 196.459 137.426 197.37 138.785 199.192C140.145 201.014 140.824 203.525 140.824 206.724C140.824 209.97 140.142 212.516 138.776 214.362C137.411 216.208 135.539 217.13 133.16 217.13C131.988 217.13 130.954 216.876 130.058 216.366C129.161 215.856 128.443 215.115 127.904 214.142L127.904 216.621L124.67 216.621L124.67 189.269L127.904 189.269L127.904 199.447Z" fill="#5daef9" opacity="1"/>
<path d="M155.291 206.724L154.219 206.724C152.332 206.724 150.911 207.055 149.956 207.717C149.001 208.38 148.523 209.367 148.523 210.679C148.523 211.863 148.881 212.783 149.596 213.439C150.311 214.095 151.301 214.423 152.566 214.423C154.348 214.423 155.748 213.805 156.768 212.569C157.787 211.333 158.303 209.625 158.314 207.445L158.314 206.724L155.291 206.724ZM161.566 205.388L161.566 216.621L158.314 216.621L158.314 213.703C157.623 214.875 156.753 215.739 155.704 216.296C154.655 216.852 153.381 217.13 151.881 217.13C149.877 217.13 148.277 216.565 147.082 215.434C145.887 214.303 145.289 212.789 145.289 210.89C145.289 208.699 146.024 207.035 147.495 205.898C148.966 204.761 151.125 204.193 153.973 204.193L158.314 204.193L158.314 203.683C158.303 202.113 157.904 200.973 157.119 200.264C156.334 199.555 155.08 199.201 153.357 199.201C152.256 199.201 151.143 199.359 150.018 199.675C148.893 199.992 147.797 200.455 146.73 201.064L146.73 197.83C147.926 197.373 149.071 197.03 150.167 196.801C151.263 196.573 152.326 196.459 153.357 196.459C154.986 196.459 156.378 196.699 157.532 197.179C158.687 197.66 159.621 198.38 160.336 199.341C160.781 199.927 161.098 200.651 161.285 201.512C161.473 202.374 161.566 203.666 161.566 205.388Z" fill="#5daef9" opacity="1"/>
<path d="M183.275 215.619C182.408 216.123 181.515 216.501 180.595 216.753C179.675 217.005 178.734 217.13 177.773 217.13C174.727 217.13 172.345 216.216 170.628 214.388C168.911 212.56 168.053 210.029 168.053 206.795C168.053 203.56 168.911 201.029 170.628 199.201C172.345 197.373 174.727 196.459 177.773 196.459C178.723 196.459 179.648 196.582 180.551 196.828C181.453 197.074 182.361 197.455 183.275 197.97L183.275 201.363C182.42 200.601 181.562 200.05 180.7 199.711C179.839 199.371 178.863 199.201 177.773 199.201C175.746 199.201 174.187 199.857 173.098 201.17C172.008 202.482 171.463 204.357 171.463 206.795C171.463 209.22 172.011 211.092 173.106 212.411C174.202 213.729 175.758 214.388 177.773 214.388C178.898 214.388 179.906 214.215 180.797 213.87C181.687 213.524 182.514 212.988 183.275 212.261L183.275 215.619Z" fill="#5daef9" opacity="1"/>
<path d="M190.447 189.269L193.787 189.269L193.787 205.107L202.277 196.933L206.215 196.933L198.463 204.351L207.428 216.621L203.473 216.621L196.195 206.461L193.787 208.728L193.787 216.621L190.447 216.621L190.447 189.269Z" fill="#5daef9" opacity="1"/>
<path d="M223.055 206.619C223.055 204.193 222.659 202.35 221.868 201.09C221.077 199.831 219.926 199.201 218.414 199.201C216.832 199.201 215.625 199.831 214.793 201.09C213.961 202.35 213.545 204.193 213.545 206.619C213.545 209.045 213.964 210.893 214.802 212.165C215.64 213.436 216.855 214.072 218.449 214.072C219.937 214.072 221.077 213.433 221.868 212.156C222.659 210.879 223.055 209.033 223.055 206.619ZM226.289 215.355C226.289 218.308 225.592 220.547 224.197 222.07C222.803 223.593 220.752 224.355 218.045 224.355C217.154 224.355 216.223 224.273 215.25 224.109C214.277 223.945 213.305 223.705 212.332 223.388L212.332 220.189C213.48 220.728 214.523 221.127 215.461 221.384C216.398 221.642 217.26 221.771 218.045 221.771C219.791 221.771 221.062 221.297 221.859 220.347C222.656 219.398 223.055 217.892 223.055 215.83L223.055 215.689L223.055 213.492C222.539 214.593 221.836 215.414 220.945 215.953C220.055 216.492 218.971 216.761 217.693 216.761C215.396 216.761 213.562 215.841 212.191 214.002C210.82 212.162 210.135 209.701 210.135 206.619C210.135 203.525 210.82 201.058 212.191 199.218C213.562 197.379 215.396 196.459 217.693 196.459C218.959 196.459 220.031 196.711 220.91 197.214C221.789 197.718 222.504 198.498 223.055 199.552L223.055 197.004L226.289 197.004L226.289 215.355Z" fill="#5daef9" opacity="1"/>
<path d="M249.949 200.994C249.258 200.455 248.555 200.062 247.84 199.816C247.125 199.57 246.34 199.447 245.484 199.447C243.469 199.447 241.928 200.08 240.861 201.345C239.795 202.611 239.262 204.439 239.262 206.83L239.262 216.621L236.01 216.621L236.01 196.933L239.262 196.933L239.262 200.783C239.801 199.388 240.63 198.319 241.749 197.575C242.868 196.831 244.195 196.459 245.73 196.459C246.527 196.459 247.271 196.558 247.963 196.757C248.654 196.957 249.316 197.267 249.949 197.689L249.949 200.994Z" fill="#5daef9" opacity="1"/>
<path d="M262.148 199.201C260.508 199.201 259.266 199.839 258.422 201.117C257.578 202.394 257.156 204.287 257.156 206.795C257.156 209.291 257.578 211.18 258.422 212.463C259.266 213.747 260.508 214.388 262.148 214.388C263.801 214.388 265.049 213.747 265.893 212.463C266.736 211.18 267.158 209.291 267.158 206.795C267.158 204.287 266.736 202.394 265.893 201.117C265.049 199.839 263.801 199.201 262.148 199.201ZM262.148 196.459C264.879 196.459 266.968 197.343 268.415 199.113C269.862 200.882 270.586 203.443 270.586 206.795C270.586 210.158 269.865 212.721 268.424 214.485C266.982 216.249 264.891 217.13 262.148 217.13C259.418 217.13 257.332 216.249 255.891 214.485C254.449 212.721 253.728 210.158 253.728 206.795C253.728 203.443 254.449 200.882 255.891 199.113C257.332 197.343 259.418 196.459 262.148 196.459Z" fill="#5daef9" opacity="1"/>
<path d="M276.422 209.168L276.422 196.968L279.656 196.968L279.656 209.168C279.656 210.937 279.97 212.238 280.597 213.07C281.224 213.902 282.193 214.318 283.506 214.318C285.029 214.318 286.195 213.782 287.004 212.71C287.812 211.637 288.217 210.099 288.217 208.095L288.217 196.968L291.469 196.968L291.469 216.621L288.217 216.621L288.217 213.668C287.643 214.804 286.86 215.666 285.87 216.252C284.88 216.838 283.723 217.13 282.398 217.13C280.383 217.13 278.883 216.471 277.898 215.153C276.914 213.835 276.422 211.839 276.422 209.168Z" fill="#5daef9" opacity="1"/>
<path d="M313.143 204.422L313.143 216.621L309.891 216.621L309.891 204.422C309.891 202.652 309.58 201.351 308.959 200.519C308.338 199.687 307.365 199.271 306.041 199.271C304.529 199.271 303.366 199.807 302.552 200.88C301.737 201.952 301.33 203.49 301.33 205.494L301.33 216.621L298.096 216.621L298.096 196.933L301.33 196.933L301.33 199.886C301.904 198.761 302.684 197.909 303.668 197.329C304.652 196.749 305.818 196.459 307.166 196.459C309.17 196.459 310.667 197.118 311.657 198.436C312.647 199.755 313.143 201.75 313.143 204.422Z" fill="#5daef9" opacity="1"/>
<path d="M331.424 199.447L331.424 189.269L334.658 189.269L334.658 216.621L331.424 216.621L331.424 214.142C330.885 215.115 330.167 215.856 329.27 216.366C328.374 216.876 327.34 217.13 326.168 217.13C323.789 217.13 321.917 216.208 320.552 214.362C319.187 212.516 318.504 209.97 318.504 206.724C318.504 203.525 319.189 201.014 320.561 199.192C321.932 197.37 323.801 196.459 326.168 196.459C327.352 196.459 328.395 196.713 329.297 197.223C330.199 197.733 330.908 198.474 331.424 199.447ZM321.914 206.795C321.914 209.302 322.312 211.195 323.109 212.472C323.906 213.75 325.084 214.388 326.643 214.388C328.201 214.388 329.388 213.744 330.202 212.455C331.017 211.166 331.424 209.279 331.424 206.795C331.424 204.298 331.017 202.409 330.202 201.126C329.388 199.842 328.201 199.201 326.643 199.201C325.084 199.201 323.906 199.839 323.109 201.117C322.312 202.394 321.914 204.287 321.914 206.795Z" fill="#5daef9" opacity="1"/>
<path d="M339.562 207.832L358.143 207.832L358.143 210.802L339.562 210.802L339.562 207.832ZM339.562 199.552L358.143 199.552L358.143 202.523L339.562 202.523L339.562 199.552Z" fill="#5daef9" opacity="1"/>
<path d="M377.83 217.517L377.83 220.048L376.705 220.048C373.787 220.048 371.833 219.615 370.843 218.748C369.853 217.88 369.357 216.152 369.357 213.562L369.357 210.047C369.357 208.769 368.997 207.668 368.276 206.742C367.556 205.816 366.439 205.353 364.928 205.353L362.783 205.353L362.783 202.839L364.928 202.839C366.58 202.839 367.731 202.447 368.382 201.662C369.032 200.877 369.357 199.722 369.357 198.199L369.357 193.629C369.357 191.039 369.853 189.313 370.843 188.452C371.833 187.59 373.787 187.16 376.705 187.16L377.83 187.16L377.83 189.673L376.6 189.673C374.959 189.673 373.89 189.928 373.392 190.438C372.894 190.948 372.645 192.035 372.645 193.699L372.645 198.41C372.645 200.472 372.24 201.858 371.432 202.567C370.623 203.276 369.047 203.789 366.703 204.105C368.977 204.375 370.535 204.893 371.379 205.661C372.223 206.428 372.645 207.814 372.645 209.818L372.645 213.492C372.645 215.168 372.894 216.257 373.392 216.761C373.89 217.265 374.959 217.517 376.6 217.517L377.83 217.517Z" fill="#5daef9" opacity="1"/>
<path d="M393.527 206.425L393.527 214.054C394.816 214.019 395.824 213.662 396.551 212.982C397.277 212.302 397.641 211.377 397.641 210.205C397.641 209.115 397.312 208.268 396.656 207.665C396 207.061 394.957 206.648 393.527 206.425ZM391.77 203.086L391.77 195.826C390.551 195.873 389.599 196.224 388.913 196.88C388.228 197.537 387.885 198.416 387.885 199.517C387.885 200.525 388.204 201.322 388.843 201.908C389.481 202.494 390.457 202.886 391.77 203.086ZM393.527 221.912L391.77 221.912L391.752 216.621C390.557 216.562 389.37 216.398 388.192 216.129C387.015 215.859 385.852 215.484 384.703 215.004L384.703 211.839C385.875 212.566 387.056 213.123 388.245 213.509C389.435 213.896 390.609 214.101 391.77 214.125L391.77 206.074C389.426 205.711 387.662 204.996 386.478 203.929C385.295 202.863 384.703 201.451 384.703 199.693C384.703 197.853 385.321 196.385 386.558 195.29C387.794 194.194 389.531 193.564 391.77 193.4L391.77 189.269L393.527 189.269L393.545 193.4C394.471 193.459 395.408 193.576 396.357 193.752C397.307 193.927 398.273 194.168 399.258 194.472L399.258 197.513C398.262 197.009 397.292 196.62 396.349 196.344C395.405 196.069 394.465 195.908 393.527 195.861L393.527 203.437C395.941 203.8 397.781 204.55 399.047 205.687C400.312 206.824 400.945 208.295 400.945 210.099C400.945 211.904 400.263 213.41 398.897 214.617C397.532 215.824 395.748 216.48 393.545 216.586L393.527 221.912Z" fill="#5daef9" opacity="1"/>
<path d="M418.119 206.619C418.119 204.193 417.724 202.35 416.933 201.09C416.142 199.831 414.99 199.201 413.478 199.201C411.896 199.201 410.689 199.831 409.857 201.09C409.025 202.35 408.609 204.193 408.609 206.619C408.609 209.045 409.028 210.893 409.866 212.165C410.704 213.436 411.92 214.072 413.514 214.072C415.002 214.072 416.142 213.433 416.933 212.156C417.724 210.879 418.119 209.033 418.119 206.619ZM421.353 215.355C421.353 218.308 420.656 220.547 419.262 222.07C417.867 223.593 415.816 224.355 413.109 224.355C412.219 224.355 411.287 224.273 410.314 224.109C409.342 223.945 408.369 223.705 407.396 223.388L407.396 220.189C408.545 220.728 409.588 221.127 410.525 221.384C411.463 221.642 412.324 221.771 413.109 221.771C414.855 221.771 416.127 221.297 416.924 220.347C417.721 219.398 418.119 217.892 418.119 215.83L418.119 215.689L418.119 213.492C417.603 214.593 416.9 215.414 416.01 215.953C415.119 216.492 414.035 216.761 412.758 216.761C410.461 216.761 408.627 215.841 407.256 214.002C405.885 212.162 405.199 209.701 405.199 206.619C405.199 203.525 405.885 201.058 407.256 199.218C408.627 197.379 410.461 196.459 412.758 196.459C414.023 196.459 415.096 196.711 415.975 197.214C416.853 197.718 417.568 198.498 418.119 199.552L418.119 197.004L421.353 197.004L421.353 215.355Z" fill="#5daef9" opacity="1"/>
<path d="M445.014 200.994C444.322 200.455 443.619 200.062 442.904 199.816C442.189 199.57 441.404 199.447 440.549 199.447C438.533 199.447 436.992 200.08 435.926 201.345C434.859 202.611 434.326 204.439 434.326 206.83L434.326 216.621L431.074 216.621L431.074 196.933L434.326 196.933L434.326 200.783C434.865 199.388 435.694 198.319 436.813 197.575C437.933 196.831 439.26 196.459 440.795 196.459C441.592 196.459 442.336 196.558 443.027 196.757C443.719 196.957 444.381 197.267 445.014 197.689L445.014 200.994Z" fill="#5daef9" opacity="1"/>
<path d="M458.725 206.724L457.652 206.724C455.766 206.724 454.345 207.055 453.39 207.717C452.435 208.38 451.957 209.367 451.957 210.679C451.957 211.863 452.314 212.783 453.029 213.439C453.744 214.095 454.734 214.423 456 214.423C457.781 214.423 459.182 213.805 460.201 212.569C461.221 211.333 461.736 209.625 461.748 207.445L461.748 206.724L458.725 206.724ZM465 205.388L465 216.621L461.748 216.621L461.748 213.703C461.057 214.875 460.187 215.739 459.138 216.296C458.089 216.852 456.814 217.13 455.314 217.13C453.311 217.13 451.711 216.565 450.516 215.434C449.32 214.303 448.723 212.789 448.723 210.89C448.723 208.699 449.458 207.035 450.929 205.898C452.399 204.761 454.559 204.193 457.406 204.193L461.748 204.193L461.748 203.683C461.736 202.113 461.338 200.973 460.553 200.264C459.768 199.555 458.514 199.201 456.791 199.201C455.689 199.201 454.576 199.359 453.451 199.675C452.326 199.992 451.23 200.455 450.164 201.064L450.164 197.83C451.359 197.373 452.505 197.03 453.601 196.801C454.696 196.573 455.76 196.459 456.791 196.459C458.42 196.459 459.812 196.699 460.966 197.179C462.12 197.66 463.055 198.38 463.77 199.341C464.215 199.927 464.531 200.651 464.719 201.512C464.906 202.374 465 203.666 465 205.388Z" fill="#5daef9" opacity="1"/>
<path d="M483.141 199.447L483.141 189.269L486.375 189.269L486.375 216.621L483.141 216.621L483.141 214.142C482.602 215.115 481.884 215.856 480.987 216.366C480.091 216.876 479.057 217.13 477.885 217.13C475.506 217.13 473.634 216.208 472.269 214.362C470.903 212.516 470.221 209.97 470.221 206.724C470.221 203.525 470.906 201.014 472.277 199.192C473.648 197.37 475.518 196.459 477.885 196.459C479.068 196.459 480.111 196.713 481.014 197.223C481.916 197.733 482.625 198.474 483.141 199.447ZM473.631 206.795C473.631 209.302 474.029 211.195 474.826 212.472C475.623 213.75 476.801 214.388 478.359 214.388C479.918 214.388 481.104 213.744 481.919 212.455C482.733 211.166 483.141 209.279 483.141 206.795C483.141 204.298 482.733 202.409 481.919 201.126C481.104 199.842 479.918 199.201 478.359 199.201C476.801 199.201 475.623 199.839 474.826 201.117C474.029 202.394 473.631 204.287 473.631 206.795Z" fill="#5daef9" opacity="1"/>
<path d="M495.287 197.004L503.566 197.004L503.566 214.107L509.982 214.107L509.982 216.621L493.916 216.621L493.916 214.107L500.332 214.107L500.332 199.517L495.287 199.517L495.287 197.004ZM500.332 189.357L503.566 189.357L503.566 193.435L500.332 193.435L500.332 189.357Z" fill="#5daef9" opacity="1"/>
<path d="M531.094 205.16L531.094 206.742L517.084 206.742L517.084 206.847C516.99 209.531 517.503 211.459 518.622 212.63C519.741 213.802 521.32 214.388 523.359 214.388C524.391 214.388 525.469 214.224 526.594 213.896C527.719 213.568 528.92 213.07 530.197 212.402L530.197 215.619C528.967 216.123 527.78 216.501 526.638 216.753C525.495 217.005 524.391 217.13 523.324 217.13C520.266 217.13 517.875 216.213 516.152 214.38C514.43 212.546 513.568 210.017 513.568 206.795C513.568 203.654 514.412 201.146 516.1 199.271C517.787 197.396 520.037 196.459 522.85 196.459C525.357 196.459 527.335 197.308 528.782 199.007C530.229 200.707 531 202.757 531.094 205.16ZM527.859 204.211C527.719 202.851 527.224 201.676 526.374 200.686C525.524 199.696 524.303 199.201 522.709 199.201C521.15 199.201 519.867 199.716 518.859 200.748C517.852 201.779 517.301 202.939 517.207 204.228L527.859 204.211Z" fill="#5daef9" opacity="1"/>
<path d="M551.555 204.422L551.555 216.621L548.303 216.621L548.303 204.422C548.303 202.652 547.992 201.351 547.371 200.519C546.75 199.687 545.777 199.271 544.453 199.271C542.941 199.271 541.778 199.807 540.964 200.88C540.149 201.952 539.742 203.49 539.742 205.494L539.742 216.621L536.508 216.621L536.508 196.933L539.742 196.933L539.742 199.886C540.316 198.761 541.096 197.909 542.08 197.329C543.064 196.749 544.23 196.459 545.578 196.459C547.582 196.459 549.079 197.118 550.069 198.436C551.06 199.755 551.555 201.75 551.555 204.422Z" fill="#5daef9" opacity="1"/>
<path d="M565.547 191.343L565.547 196.933L572.895 196.933L572.895 199.447L565.547 199.447L565.547 210.134C565.547 211.588 565.822 212.601 566.373 213.175C566.924 213.75 567.885 214.037 569.256 214.037L572.895 214.037L572.895 216.621L568.939 216.621C566.514 216.621 564.803 216.134 563.807 215.162C562.811 214.189 562.312 212.513 562.312 210.134L562.312 199.447L557.057 199.447L557.057 196.933L562.312 196.933L562.312 191.343L565.547 191.343Z" fill="#5daef9" opacity="1"/>
<path d="M591.457 187.547C589.898 190.218 588.735 192.881 587.968 195.536C587.2 198.19 586.816 200.865 586.816 203.56C586.816 206.244 587.2 208.916 587.968 211.576C588.735 214.236 589.898 216.914 591.457 219.609L588.645 219.609C586.875 216.82 585.557 214.104 584.689 211.462C583.822 208.819 583.389 206.185 583.389 203.56C583.389 200.947 583.822 198.316 584.689 195.668C585.557 193.019 586.875 190.312 588.645 187.547L591.457 187.547Z" fill="#5daef9" opacity="1"/>
<path d="M610.74 209.502C610.74 210.955 611.007 212.05 611.54 212.789C612.073 213.527 612.861 213.896 613.904 213.896L617.684 213.896L617.684 216.621L613.588 216.621C611.654 216.621 610.157 216.003 609.097 214.766C608.036 213.53 607.506 211.775 607.506 209.502L607.506 191.695L602.32 191.695L602.32 189.164L610.74 189.164L610.74 209.502Z" fill="#5daef9" opacity="1"/>
<path d="M625.33 197.004L633.609 197.004L633.609 214.107L640.025 214.107L640.025 216.621L623.959 216.621L623.959 214.107L630.375 214.107L630.375 199.517L625.33 199.517L625.33 197.004ZM630.375 189.357L633.609 189.357L633.609 193.435L630.375 193.435L630.375 189.357Z" fill="#5daef9" opacity="1"/>
<path d="M659.924 204.422L659.924 216.621L656.672 216.621L656.672 204.422C656.672 202.652 656.361 201.351 655.74 200.519C655.119 199.687 654.146 199.271 652.822 199.271C651.311 199.271 650.147 199.807 649.333 200.88C648.519 201.952 648.111 203.49 648.111 205.494L648.111 216.621L644.877 216.621L644.877 196.933L648.111 196.933L648.111 199.886C648.686 198.761 649.465 197.909 650.449 197.329C651.434 196.749 652.6 196.459 653.947 196.459C655.951 196.459 657.448 197.118 658.438 198.436C659.429 199.755 659.924 201.75 659.924 204.422Z" fill="#5daef9" opacity="1"/>
<path d="M682.811 205.16L682.811 206.742L668.801 206.742L668.801 206.847C668.707 209.531 669.22 211.459 670.339 212.63C671.458 213.802 673.037 214.388 675.076 214.388C676.107 214.388 677.186 214.224 678.311 213.896C679.436 213.568 680.637 213.07 681.914 212.402L681.914 215.619C680.684 216.123 679.497 216.501 678.354 216.753C677.212 217.005 676.107 217.13 675.041 217.13C671.982 217.13 669.592 216.213 667.869 214.38C666.146 212.546 665.285 210.017 665.285 206.795C665.285 203.654 666.129 201.146 667.816 199.271C669.504 197.396 671.754 196.459 674.566 196.459C677.074 196.459 679.052 197.308 680.499 199.007C681.946 200.707 682.717 202.757 682.811 205.16ZM679.576 204.211C679.436 202.851 678.94 201.676 678.091 200.686C677.241 199.696 676.02 199.201 674.426 199.201C672.867 199.201 671.584 199.716 670.576 200.748C669.568 201.779 669.018 202.939 668.924 204.228L679.576 204.211Z" fill="#5daef9" opacity="1"/>
<path d="M697.137 206.724L696.064 206.724C694.178 206.724 692.757 207.055 691.802 207.717C690.847 208.38 690.369 209.367 690.369 210.679C690.369 211.863 690.727 212.783 691.441 213.439C692.156 214.095 693.146 214.423 694.412 214.423C696.193 214.423 697.594 213.805 698.613 212.569C699.633 211.333 700.148 209.625 700.16 207.445L700.16 206.724L697.137 206.724ZM703.412 205.388L703.412 216.621L700.16 216.621L700.16 213.703C699.469 214.875 698.599 215.739 697.55 216.296C696.501 216.852 695.227 217.13 693.727 217.13C691.723 217.13 690.123 216.565 688.928 215.434C687.732 214.303 687.135 212.789 687.135 210.89C687.135 208.699 687.87 207.035 689.341 205.898C690.812 204.761 692.971 204.193 695.818 204.193L700.16 204.193L700.16 203.683C700.148 202.113 699.75 200.973 698.965 200.264C698.18 199.555 696.926 199.201 695.203 199.201C694.102 199.201 692.988 199.359 691.863 199.675C690.738 199.992 689.643 200.455 688.576 201.064L688.576 197.83C689.771 197.373 690.917 197.03 692.013 196.801C693.108 196.573 694.172 196.459 695.203 196.459C696.832 196.459 698.224 196.699 699.378 197.179C700.532 197.66 701.467 198.38 702.182 199.341C702.627 199.927 702.943 200.651 703.131 201.512C703.318 202.374 703.412 203.666 703.412 205.388Z" fill="#5daef9" opacity="1"/>
<path d="M726.773 200.994C726.082 200.455 725.379 200.062 724.664 199.816C723.949 199.57 723.164 199.447 722.309 199.447C720.293 199.447 718.752 200.08 717.686 201.345C716.619 202.611 716.086 204.439 716.086 206.83L716.086 216.621L712.834 216.621L712.834 196.933L716.086 196.933L716.086 200.783C716.625 199.388 717.454 198.319 718.573 197.575C719.692 196.831 721.02 196.459 722.555 196.459C723.352 196.459 724.096 196.558 724.787 196.757C725.478 196.957 726.141 197.267 726.773 197.689L726.773 200.994Z" fill="#5daef9" opacity="1"/>
<path d="M747.551 214.459C746.602 215.338 745.532 216.003 744.343 216.454C743.153 216.905 741.867 217.13 740.484 217.13C737.156 217.13 734.566 215.938 732.715 213.553C730.863 211.169 729.937 207.826 729.937 203.525C729.937 199.236 730.875 195.893 732.75 193.497C734.625 191.1 737.232 189.902 740.572 189.902C741.674 189.902 742.728 190.057 743.736 190.368C744.744 190.678 745.717 191.15 746.654 191.783L746.654 195.422C745.705 194.519 744.732 193.854 743.736 193.426C742.74 192.999 741.686 192.785 740.572 192.785C738.264 192.785 736.532 193.678 735.378 195.465C734.224 197.253 733.646 199.939 733.646 203.525C733.646 207.17 734.206 209.868 735.325 211.62C736.444 213.372 738.164 214.248 740.484 214.248C741.27 214.248 741.958 214.157 742.55 213.975C743.142 213.794 743.678 213.509 744.158 213.123L744.158 206.074L740.344 206.074L740.344 203.156L747.551 203.156L747.551 214.459Z" fill="#5daef9" opacity="1"/>
<path d="M770.121 200.994C769.43 200.455 768.727 200.062 768.012 199.816C767.297 199.57 766.512 199.447 765.656 199.447C763.641 199.447 762.1 200.08 761.033 201.345C759.967 202.611 759.434 204.439 759.434 206.83L759.434 216.621L756.182 216.621L756.182 196.933L759.434 196.933L759.434 200.783C759.973 199.388 760.802 198.319 761.921 197.575C763.04 196.831 764.367 196.459 765.902 196.459C766.699 196.459 767.443 196.558 768.135 196.757C768.826 196.957 769.488 197.267 770.121 197.689L770.121 200.994Z" fill="#5daef9" opacity="1"/>
<path d="M783.832 206.724L782.76 206.724C780.873 206.724 779.452 207.055 778.497 207.717C777.542 208.38 777.064 209.367 777.064 210.679C777.064 211.863 777.422 212.783 778.137 213.439C778.852 214.095 779.842 214.423 781.107 214.423C782.889 214.423 784.289 213.805 785.309 212.569C786.328 211.333 786.844 209.625 786.855 207.445L786.855 206.724L783.832 206.724ZM790.107 205.388L790.107 216.621L786.855 216.621L786.855 213.703C786.164 214.875 785.294 215.739 784.245 216.296C783.196 216.852 781.922 217.13 780.422 217.13C778.418 217.13 776.818 216.565 775.623 215.434C774.428 214.303 773.83 212.789 773.83 210.89C773.83 208.699 774.565 207.035 776.036 205.898C777.507 204.761 779.666 204.193 782.514 204.193L786.855 204.193L786.855 203.683C786.844 202.113 786.445 200.973 785.66 200.264C784.875 199.555 783.621 199.201 781.898 199.201C780.797 199.201 779.684 199.359 778.559 199.675C777.434 199.992 776.338 200.455 775.271 201.064L775.271 197.83C776.467 197.373 777.612 197.03 778.708 196.801C779.804 196.573 780.867 196.459 781.898 196.459C783.527 196.459 784.919 196.699 786.073 197.179C787.228 197.66 788.162 198.38 788.877 199.341C789.322 199.927 789.639 200.651 789.826 201.512C790.014 202.374 790.107 203.666 790.107 205.388Z" fill="#5daef9" opacity="1"/>
<path d="M808.248 199.447L808.248 189.269L811.482 189.269L811.482 216.621L808.248 216.621L808.248 214.142C807.709 215.115 806.991 215.856 806.095 216.366C805.198 216.876 804.164 217.13 802.992 217.13C800.613 217.13 798.741 216.208 797.376 214.362C796.011 212.516 795.328 209.97 795.328 206.724C795.328 203.525 796.014 201.014 797.385 199.192C798.756 197.37 800.625 196.459 802.992 196.459C804.176 196.459 805.219 196.713 806.121 197.223C807.023 197.733 807.732 198.474 808.248 199.447ZM798.738 206.795C798.738 209.302 799.137 211.195 799.934 212.472C800.73 213.75 801.908 214.388 803.467 214.388C805.025 214.388 806.212 213.744 807.026 212.455C807.841 211.166 808.248 209.279 808.248 206.795C808.248 204.298 807.841 202.409 807.026 201.126C806.212 199.842 805.025 199.201 803.467 199.201C801.908 199.201 800.73 199.839 799.934 201.117C799.137 202.394 798.738 204.287 798.738 206.795Z" fill="#5daef9" opacity="1"/>
<path d="M820.395 197.004L828.674 197.004L828.674 214.107L835.09 214.107L835.09 216.621L819.023 216.621L819.023 214.107L825.439 214.107L825.439 199.517L820.395 199.517L820.395 197.004ZM825.439 189.357L828.674 189.357L828.674 193.435L825.439 193.435L825.439 189.357Z" fill="#5daef9" opacity="1"/>
<path d="M856.201 205.16L856.201 206.742L842.191 206.742L842.191 206.847C842.098 209.531 842.61 211.459 843.729 212.63C844.849 213.802 846.428 214.388 848.467 214.388C849.498 214.388 850.576 214.224 851.701 213.896C852.826 213.568 854.027 213.07 855.305 212.402L855.305 215.619C854.074 216.123 852.888 216.501 851.745 216.753C850.603 217.005 849.498 217.13 848.432 217.13C845.373 217.13 842.982 216.213 841.26 214.38C839.537 212.546 838.676 210.017 838.676 206.795C838.676 203.654 839.52 201.146 841.207 199.271C842.895 197.396 845.145 196.459 847.957 196.459C850.465 196.459 852.442 197.308 853.89 199.007C855.337 200.707 856.107 202.757 856.201 205.16ZM852.967 204.211C852.826 202.851 852.331 201.676 851.481 200.686C850.632 199.696 849.41 199.201 847.816 199.201C846.258 199.201 844.975 199.716 843.967 200.748C842.959 201.779 842.408 202.939 842.314 204.228L852.967 204.211Z" fill="#5daef9" opacity="1"/>
<path d="M876.662 204.422L876.662 216.621L873.41 216.621L873.41 204.422C873.41 202.652 873.1 201.351 872.478 200.519C871.857 199.687 870.885 199.271 869.561 199.271C868.049 199.271 866.886 199.807 866.071 200.88C865.257 201.952 864.85 203.49 864.85 205.494L864.85 216.621L861.615 216.621L861.615 196.933L864.85 196.933L864.85 199.886C865.424 198.761 866.203 197.909 867.187 197.329C868.172 196.749 869.338 196.459 870.686 196.459C872.689 196.459 874.187 197.118 875.177 198.436C876.167 199.755 876.662 201.75 876.662 204.422Z" fill="#5daef9" opacity="1"/>
<path d="M890.654 191.343L890.654 196.933L898.002 196.933L898.002 199.447L890.654 199.447L890.654 210.134C890.654 211.588 890.93 212.601 891.48 213.175C892.031 213.75 892.992 214.037 894.363 214.037L898.002 214.037L898.002 216.621L894.047 216.621C891.621 216.621 889.91 216.134 888.914 215.162C887.918 214.189 887.42 212.513 887.42 210.134L887.42 199.447L882.164 199.447L882.164 196.933L887.42 196.933L887.42 191.343L890.654 191.343Z" fill="#5daef9" opacity="1"/>
<path d="M907.652 187.547L910.465 187.547C912.234 190.312 913.553 193.019 914.42 195.668C915.287 198.316 915.721 200.947 915.721 203.56C915.721 206.197 915.287 208.839 914.42 211.488C913.553 214.136 912.234 216.843 910.465 219.609L907.652 219.609C909.211 216.89 910.374 214.201 911.142 211.541C911.909 208.88 912.293 206.22 912.293 203.56C912.293 200.888 911.909 198.222 911.142 195.562C910.374 192.902 909.211 190.23 907.652 187.547Z" fill="#5daef9" opacity="1"/>
<path d="M928.289 217.517C929.93 217.517 930.999 217.265 931.497 216.761C931.995 216.257 932.244 215.168 932.244 213.492L932.244 209.818C932.244 207.814 932.666 206.428 933.51 205.661C934.353 204.893 935.912 204.375 938.186 204.105C935.842 203.789 934.266 203.276 933.457 202.567C932.648 201.858 932.244 200.472 932.244 198.41L932.244 193.699C932.244 192.035 931.995 190.948 931.497 190.438C930.999 189.928 929.93 189.673 928.289 189.673L927.059 189.673L927.059 187.16L928.184 187.16C931.102 187.16 933.056 187.59 934.046 188.452C935.036 189.313 935.531 191.039 935.531 193.629L935.531 198.199C935.531 199.722 935.856 200.877 936.507 201.662C937.157 202.447 938.309 202.839 939.961 202.839L942.105 202.839L942.105 205.353L939.961 205.353C938.449 205.353 937.333 205.816 936.612 206.742C935.892 207.668 935.531 208.769 935.531 210.047L935.531 213.562C935.531 216.152 935.036 217.88 934.046 218.748C933.056 219.615 931.102 220.048 928.184 220.048L927.059 220.048L927.059 217.517L928.289 217.517Z" fill="#5daef9" opacity="1"/>
<path d="M29.1504 243.728L29.1504 240.529L47.7304 247.877L47.7304 250.795L29.1504 258.142L29.1504 254.925L44.0918 249.353L29.1504 243.728Z" fill="#5daef9" opacity="1"/>
<path d="M155.73 287.728L140.789 293.353L155.73 298.925L155.73 302.142L137.15 294.795L137.15 291.877L155.73 284.529L155.73 287.728Z" fill="#5daef9" opacity="1"/>
<path d="M168.07 279.343L168.07 284.933L175.418 284.933L175.418 287.447L168.07 287.447L168.07 298.134C168.07 299.588 168.346 300.601 168.896 301.175C169.447 301.75 170.408 302.037 171.779 302.037L175.418 302.037L175.418 304.621L171.463 304.621C169.037 304.621 167.326 304.134 166.33 303.162C165.334 302.189 164.836 300.513 164.836 298.134L164.836 287.447L159.58 287.447L159.58 284.933L164.836 284.933L164.836 279.343L168.07 279.343Z" fill="#5daef9" opacity="1"/>
<path d="M198.639 293.16L198.639 294.742L184.629 294.742L184.629 294.847C184.535 297.531 185.048 299.459 186.167 300.63C187.286 301.802 188.865 302.388 190.904 302.388C191.936 302.388 193.014 302.224 194.139 301.896C195.264 301.568 196.465 301.07 197.742 300.402L197.742 303.619C196.512 304.123 195.325 304.501 194.183 304.753C193.04 305.005 191.936 305.13 190.869 305.13C187.811 305.13 185.42 304.213 183.697 302.38C181.975 300.546 181.113 298.017 181.113 294.795C181.113 291.654 181.957 289.146 183.645 287.271C185.332 285.396 187.582 284.459 190.395 284.459C192.902 284.459 194.88 285.308 196.327 287.007C197.774 288.707 198.545 290.757 198.639 293.16ZM195.404 292.211C195.264 290.851 194.769 289.676 193.919 288.686C193.069 287.696 191.848 287.201 190.254 287.201C188.695 287.201 187.412 287.716 186.404 288.748C185.396 289.779 184.846 290.939 184.752 292.228L195.404 292.211Z" fill="#5daef9" opacity="1"/>
<path d="M220.277 284.933L213.228 294.355L220.963 304.621L217.219 304.621L211.453 296.728L205.705 304.621L201.961 304.621L209.695 294.355L202.646 284.933L206.232 284.933L211.453 292.052L216.639 284.933L220.277 284.933Z" fill="#5daef9" opacity="1"/>
<path d="M233.092 279.343L233.092 284.933L240.439 284.933L240.439 287.447L233.092 287.447L233.092 298.134C233.092 299.588 233.367 300.601 233.918 301.175C234.469 301.75 235.43 302.037 236.801 302.037L240.439 302.037L240.439 304.621L236.484 304.621C234.059 304.621 232.348 304.134 231.352 303.162C230.355 302.189 229.857 300.513 229.857 298.134L229.857 287.447L224.602 287.447L224.602 284.933L229.857 284.933L229.857 279.343L233.092 279.343Z" fill="#5daef9" opacity="1"/>
<path d="M298.658 277.269L298.658 279.959L294.984 279.959C293.824 279.959 293.019 280.196 292.567 280.671C292.116 281.145 291.891 281.986 291.891 283.193L291.891 284.933L298.658 284.933L298.658 287.447L291.891 287.447L291.891 304.621L288.656 304.621L288.656 287.447L283.4 287.447L283.4 284.933L288.656 284.933L288.656 283.562C288.656 281.406 289.151 279.818 290.142 278.798C291.132 277.779 292.676 277.269 294.773 277.269L298.658 277.269Z" fill="#5daef9" opacity="1"/>
<path d="M312.475 287.201C310.834 287.201 309.592 287.839 308.748 289.117C307.904 290.394 307.482 292.287 307.482 294.795C307.482 297.291 307.904 299.18 308.748 300.463C309.592 301.747 310.834 302.388 312.475 302.388C314.127 302.388 315.375 301.747 316.219 300.463C317.062 299.18 317.484 297.291 317.484 294.795C317.484 292.287 317.062 290.394 316.219 289.117C315.375 287.839 314.127 287.201 312.475 287.201ZM312.475 284.459C315.205 284.459 317.294 285.343 318.741 287.113C320.188 288.882 320.912 291.443 320.912 294.795C320.912 298.158 320.191 300.721 318.75 302.485C317.309 304.249 315.217 305.13 312.475 305.13C309.744 305.13 307.658 304.249 306.217 302.485C304.775 300.721 304.055 298.158 304.055 294.795C304.055 291.443 304.775 288.882 306.217 287.113C307.658 285.343 309.744 284.459 312.475 284.459Z" fill="#5daef9" opacity="1"/>
<path d="M341.795 292.422L341.795 304.621L338.543 304.621L338.543 292.422C338.543 290.652 338.232 289.351 337.611 288.519C336.99 287.687 336.018 287.271 334.693 287.271C333.182 287.271 332.019 287.807 331.204 288.88C330.39 289.952 329.982 291.49 329.982 293.494L329.982 304.621L326.748 304.621L326.748 284.933L329.982 284.933L329.982 287.886C330.557 286.761 331.336 285.909 332.32 285.329C333.305 284.749 334.471 284.459 335.818 284.459C337.822 284.459 339.319 285.118 340.31 286.436C341.3 287.755 341.795 289.75 341.795 292.422Z" fill="#5daef9" opacity="1"/>
<path d="M355.787 279.343L355.787 284.933L363.135 284.933L363.135 287.447L355.787 287.447L355.787 298.134C355.787 299.588 356.062 300.601 356.613 301.175C357.164 301.75 358.125 302.037 359.496 302.037L363.135 302.037L363.135 304.621L359.18 304.621C356.754 304.621 355.043 304.134 354.047 303.162C353.051 302.189 352.553 300.513 352.553 298.134L352.553 287.447L347.297 287.447L347.297 284.933L352.553 284.933L352.553 279.343L355.787 279.343Z" fill="#5daef9" opacity="1"/>
<path d="M368.215 295.832L386.795 295.832L386.795 298.802L368.215 298.802L368.215 295.832ZM368.215 287.552L386.795 287.552L386.795 290.523L368.215 290.523L368.215 287.552Z" fill="#5daef9" opacity="1"/>
<path d="M404.953 277.427L404.953 288.185L401.016 288.185L401.016 277.427L404.953 277.427ZM395.584 277.427L395.584 288.185L391.646 288.185L391.646 277.427L395.584 277.427Z" fill="#5daef9" opacity="1"/>
<path d="M420.809 279.343L420.809 284.933L428.156 284.933L428.156 287.447L420.809 287.447L420.809 298.134C420.809 299.588 421.084 300.601 421.635 301.175C422.186 301.75 423.146 302.037 424.518 302.037L428.156 302.037L428.156 304.621L424.201 304.621C421.775 304.621 420.064 304.134 419.068 303.162C418.072 302.189 417.574 300.513 417.574 298.134L417.574 287.447L412.318 287.447L412.318 284.933L417.574 284.933L417.574 279.343L420.809 279.343Z" fill="#5daef9" opacity="1"/>
<path d="M437.244 285.004L445.523 285.004L445.523 302.107L451.939 302.107L451.939 304.621L435.873 304.621L435.873 302.107L442.289 302.107L442.289 287.517L437.244 287.517L437.244 285.004ZM442.289 277.357L445.523 277.357L445.523 281.435L442.289 281.435L442.289 277.357Z" fill="#5daef9" opacity="1"/>
<path d="M464.156 279.343L464.156 284.933L471.504 284.933L471.504 287.447L464.156 287.447L464.156 298.134C464.156 299.588 464.432 300.601 464.982 301.175C465.533 301.75 466.494 302.037 467.865 302.037L471.504 302.037L471.504 304.621L467.549 304.621C465.123 304.621 463.412 304.134 462.416 303.162C461.42 302.189 460.922 300.513 460.922 298.134L460.922 287.447L455.666 287.447L455.666 284.933L460.922 284.933L460.922 279.343L464.156 279.343Z" fill="#5daef9" opacity="1"/>
<path d="M487.676 297.502C487.676 298.955 487.942 300.05 488.476 300.789C489.009 301.527 489.797 301.896 490.84 301.896L494.619 301.896L494.619 304.621L490.523 304.621C488.59 304.621 487.093 304.003 486.032 302.766C484.972 301.53 484.441 299.775 484.441 297.502L484.441 279.695L479.256 279.695L479.256 277.164L487.676 277.164L487.676 297.502Z" fill="#5daef9" opacity="1"/>
<path d="M516.398 293.16L516.398 294.742L502.389 294.742L502.389 294.847C502.295 297.531 502.808 299.459 503.927 300.63C505.046 301.802 506.625 302.388 508.664 302.388C509.695 302.388 510.773 302.224 511.898 301.896C513.023 301.568 514.225 301.07 515.502 300.402L515.502 303.619C514.271 304.123 513.085 304.501 511.942 304.753C510.8 305.005 509.695 305.13 508.629 305.13C505.57 305.13 503.18 304.213 501.457 302.38C499.734 300.546 498.873 298.017 498.873 294.795C498.873 291.654 499.717 289.146 501.404 287.271C503.092 285.396 505.342 284.459 508.154 284.459C510.662 284.459 512.64 285.308 514.087 287.007C515.534 288.707 516.305 290.757 516.398 293.16ZM513.164 292.211C513.023 290.851 512.528 289.676 511.679 288.686C510.829 287.696 509.607 287.201 508.014 287.201C506.455 287.201 505.172 287.716 504.164 288.748C503.156 289.779 502.605 290.939 502.512 292.228L513.164 292.211Z" fill="#5daef9" opacity="1"/>
<path d="M534.996 277.427L534.996 288.185L531.059 288.185L531.059 277.427L534.996 277.427ZM525.627 277.427L525.627 288.185L521.689 288.185L521.689 277.427L525.627 277.427Z" fill="#5daef9" opacity="1"/>
<path d="M541.605 287.728L541.605 284.529L560.186 291.877L560.186 294.795L541.605 302.142L541.605 298.925L556.547 293.353L541.605 287.728Z" fill="#5daef9" opacity="1"/>
<path d="M615.873 305.517L615.873 308.048L614.748 308.048C611.83 308.048 609.876 307.615 608.886 306.748C607.895 305.88 607.4 304.152 607.4 301.562L607.4 298.047C607.4 296.769 607.04 295.668 606.319 294.742C605.599 293.816 604.482 293.353 602.971 293.353L600.826 293.353L600.826 290.839L602.971 290.839C604.623 290.839 605.774 290.447 606.425 289.662C607.075 288.877 607.4 287.722 607.4 286.199L607.4 281.629C607.4 279.039 607.895 277.313 608.886 276.452C609.876 275.59 611.83 275.16 614.748 275.16L615.873 275.16L615.873 277.673L614.643 277.673C613.002 277.673 611.933 277.928 611.435 278.438C610.937 278.948 610.687 280.035 610.687 281.699L610.687 286.41C610.687 288.472 610.283 289.858 609.475 290.567C608.666 291.276 607.09 291.789 604.746 292.105C607.02 292.375 608.578 292.893 609.422 293.661C610.266 294.428 610.687 295.814 610.687 297.818L610.687 301.492C610.687 303.168 610.937 304.257 611.435 304.761C611.933 305.265 613.002 305.517 614.643 305.517L615.873 305.517Z" fill="#5daef9" opacity="1"/>
<path d="M625.998 302.142L625.998 312.109L622.746 312.109L622.746 284.933L625.998 284.933L625.998 287.447C626.537 286.474 627.255 285.733 628.151 285.223C629.048 284.713 630.082 284.459 631.254 284.459C633.633 284.459 635.499 285.379 636.853 287.218C638.206 289.058 638.883 291.607 638.883 294.865C638.883 298.064 638.203 300.575 636.844 302.397C635.484 304.219 633.621 305.13 631.254 305.13C630.059 305.13 629.013 304.876 628.116 304.366C627.22 303.856 626.514 303.115 625.998 302.142ZM635.49 294.795C635.49 292.287 635.095 290.394 634.304 289.117C633.513 287.839 632.338 287.201 630.779 287.201C629.209 287.201 628.02 287.842 627.211 289.126C626.402 290.409 625.998 292.298 625.998 294.795C625.998 297.279 626.402 299.166 627.211 300.455C628.02 301.744 629.209 302.388 630.779 302.388C632.338 302.388 633.513 301.75 634.304 300.472C635.095 299.195 635.49 297.302 635.49 294.795Z" fill="#5daef9" opacity="1"/>
<path d="M660.768 293.16L660.768 294.742L646.758 294.742L646.758 294.847C646.664 297.531 647.177 299.459 648.296 300.63C649.415 301.802 650.994 302.388 653.033 302.388C654.064 302.388 655.143 302.224 656.268 301.896C657.393 301.568 658.594 301.07 659.871 300.402L659.871 303.619C658.641 304.123 657.454 304.501 656.312 304.753C655.169 305.005 654.064 305.13 652.998 305.13C649.939 305.13 647.549 304.213 645.826 302.38C644.103 300.546 643.242 298.017 643.242 294.795C643.242 291.654 644.086 289.146 645.773 287.271C647.461 285.396 649.711 284.459 652.523 284.459C655.031 284.459 657.009 285.308 658.456 287.007C659.903 288.707 660.674 290.757 660.768 293.16ZM657.533 292.211C657.393 290.851 656.897 289.676 656.048 288.686C655.198 287.696 653.977 287.201 652.383 287.201C650.824 287.201 649.541 287.716 648.533 288.748C647.525 289.779 646.975 290.939 646.881 292.228L657.533 292.211Z" fill="#5daef9" opacity="1"/>
<path d="M683.057 288.994C682.365 288.455 681.662 288.062 680.947 287.816C680.232 287.57 679.447 287.447 678.592 287.447C676.576 287.447 675.035 288.08 673.969 289.345C672.902 290.611 672.369 292.439 672.369 294.83L672.369 304.621L669.117 304.621L669.117 284.933L672.369 284.933L672.369 288.783C672.908 287.388 673.737 286.319 674.856 285.575C675.976 284.831 677.303 284.459 678.838 284.459C679.635 284.459 680.379 284.558 681.07 284.757C681.762 284.957 682.424 285.267 683.057 285.689L683.057 288.994Z" fill="#5daef9" opacity="1"/>
<path d="M703.078 303.619C702.211 304.123 701.317 304.501 700.397 304.753C699.478 305.005 698.537 305.13 697.576 305.13C694.529 305.13 692.147 304.216 690.431 302.388C688.714 300.56 687.855 298.029 687.855 294.795C687.855 291.56 688.714 289.029 690.431 287.201C692.147 285.373 694.529 284.459 697.576 284.459C698.525 284.459 699.451 284.582 700.353 284.828C701.256 285.074 702.164 285.455 703.078 285.97L703.078 289.363C702.223 288.601 701.364 288.05 700.503 287.711C699.642 287.371 698.666 287.201 697.576 287.201C695.549 287.201 693.99 287.857 692.9 289.17C691.811 290.482 691.266 292.357 691.266 294.795C691.266 297.22 691.813 299.092 692.909 300.411C694.005 301.729 695.561 302.388 697.576 302.388C698.701 302.388 699.709 302.215 700.6 301.87C701.49 301.524 702.316 300.988 703.078 300.261L703.078 303.619Z" fill="#5daef9" opacity="1"/>
<path d="M725.789 293.16L725.789 294.742L711.779 294.742L711.779 294.847C711.686 297.531 712.198 299.459 713.317 300.63C714.437 301.802 716.016 302.388 718.055 302.388C719.086 302.388 720.164 302.224 721.289 301.896C722.414 301.568 723.615 301.07 724.893 300.402L724.893 303.619C723.662 304.123 722.476 304.501 721.333 304.753C720.19 305.005 719.086 305.13 718.02 305.13C714.961 305.13 712.57 304.213 710.848 302.38C709.125 300.546 708.264 298.017 708.264 294.795C708.264 291.654 709.107 289.146 710.795 287.271C712.482 285.396 714.732 284.459 717.545 284.459C720.053 284.459 722.03 285.308 723.478 287.007C724.925 288.707 725.695 290.757 725.789 293.16ZM722.555 292.211C722.414 290.851 721.919 289.676 721.069 288.686C720.22 287.696 718.998 287.201 717.404 287.201C715.846 287.201 714.562 287.716 713.555 288.748C712.547 289.779 711.996 290.939 711.902 292.228L722.555 292.211Z" fill="#5daef9" opacity="1"/>
<path d="M746.25 292.422L746.25 304.621L742.998 304.621L742.998 292.422C742.998 290.652 742.687 289.351 742.066 288.519C741.445 287.687 740.473 287.271 739.148 287.271C737.637 287.271 736.474 287.807 735.659 288.88C734.845 289.952 734.437 291.49 734.437 293.494L734.437 304.621L731.203 304.621L731.203 284.933L734.437 284.933L734.437 287.886C735.012 286.761 735.791 285.909 736.775 285.329C737.76 284.749 738.926 284.459 740.273 284.459C742.277 284.459 743.774 285.118 744.765 286.436C745.755 287.755 746.25 289.75 746.25 292.422Z" fill="#5daef9" opacity="1"/>
<path d="M760.242 279.343L760.242 284.933L767.59 284.933L767.59 287.447L760.242 287.447L760.242 298.134C760.242 299.588 760.518 300.601 761.068 301.175C761.619 301.75 762.58 302.037 763.951 302.037L767.59 302.037L767.59 304.621L763.635 304.621C761.209 304.621 759.498 304.134 758.502 303.162C757.506 302.189 757.008 300.513 757.008 298.134L757.008 287.447L751.752 287.447L751.752 284.933L757.008 284.933L757.008 279.343L760.242 279.343Z" fill="#5daef9" opacity="1"/>
<path d="M776.203 305.517C777.844 305.517 778.913 305.265 779.411 304.761C779.909 304.257 780.158 303.168 780.158 301.492L780.158 297.818C780.158 295.814 780.58 294.428 781.424 293.661C782.268 292.893 783.826 292.375 786.1 292.105C783.756 291.789 782.18 291.276 781.371 290.567C780.562 289.858 780.158 288.472 780.158 286.41L780.158 281.699C780.158 280.035 779.909 278.948 779.411 278.438C778.913 277.928 777.844 277.673 776.203 277.673L774.973 277.673L774.973 275.16L776.098 275.16C779.016 275.16 780.97 275.59 781.96 276.452C782.95 277.313 783.445 279.039 783.445 281.629L783.445 286.199C783.445 287.722 783.77 288.877 784.421 289.662C785.071 290.447 786.223 290.839 787.875 290.839L790.02 290.839L790.02 293.353L787.875 293.353C786.363 293.353 785.247 293.816 784.526 294.742C783.806 295.668 783.445 296.769 783.445 298.047L783.445 301.562C783.445 304.152 782.95 305.88 781.96 306.748C780.97 307.615 779.016 308.048 776.098 308.048L774.973 308.048L774.973 305.517L776.203 305.517Z" fill="#5daef9" opacity="1"/>
<path d="M841.031 299.013C841.031 299.927 841.339 300.695 841.954 301.316C842.569 301.937 843.334 302.248 844.248 302.248C845.15 302.248 845.915 301.934 846.542 301.307C847.169 300.68 847.482 299.916 847.482 299.013C847.482 298.111 847.166 297.343 846.533 296.711C845.9 296.078 845.139 295.761 844.248 295.761C843.334 295.761 842.569 296.072 841.954 296.693C841.339 297.314 841.031 298.088 841.031 299.013ZM838.658 299.013C838.658 297.431 839.197 296.098 840.275 295.014C841.353 293.93 842.678 293.388 844.248 293.388C844.998 293.388 845.71 293.529 846.384 293.81C847.058 294.091 847.664 294.502 848.203 295.041C848.742 295.591 849.158 296.207 849.451 296.886C849.744 297.566 849.891 298.275 849.891 299.013C849.891 300.572 849.346 301.896 848.256 302.986C847.166 304.076 845.83 304.621 844.248 304.621C842.654 304.621 841.324 304.085 840.258 303.012C839.191 301.94 838.658 300.607 838.658 299.013ZM830.256 296.886L829.482 294.9L849.082 287.06L849.961 289.047L830.256 296.886ZM831.75 285.074C831.75 286 832.058 286.77 832.673 287.385C833.288 288.001 834.059 288.308 834.984 288.308C835.887 288.308 836.654 287.995 837.287 287.368C837.92 286.741 838.236 285.976 838.236 285.074C838.236 284.172 837.92 283.407 837.287 282.78C836.654 282.153 835.887 281.839 834.984 281.839C834.082 281.839 833.317 282.15 832.69 282.771C832.063 283.392 831.75 284.16 831.75 285.074ZM829.377 285.074C829.377 283.492 829.916 282.159 830.994 281.075C832.072 279.991 833.402 279.449 834.984 279.449C835.734 279.449 836.452 279.589 837.138 279.871C837.823 280.152 838.43 280.556 838.957 281.084C839.484 281.611 839.892 282.217 840.179 282.903C840.466 283.588 840.609 284.312 840.609 285.074C840.609 286.644 840.064 287.971 838.975 289.055C837.885 290.139 836.555 290.681 834.984 290.681C833.402 290.681 832.072 290.142 830.994 289.064C829.916 287.986 829.377 286.656 829.377 285.074Z" fill="#5daef9" opacity="1"/>
<path d="M906.598 287.728L891.656 293.353L906.598 298.925L906.598 302.142L888.018 294.795L888.018 291.877L906.598 284.529L906.598 287.728Z" fill="#5daef9" opacity="1"/>
<path d="M923.771 278.377L927.111 278.377L913.295 307.961L909.937 307.961L923.771 278.377Z" fill="#5daef9" opacity="1"/>
<path d="M940.611 279.343L940.611 284.933L947.959 284.933L947.959 287.447L940.611 287.447L940.611 298.134C940.611 299.588 940.887 300.601 941.437 301.175C941.988 301.75 942.949 302.037 944.32 302.037L947.959 302.037L947.959 304.621L944.004 304.621C941.578 304.621 939.867 304.134 938.871 303.162C937.875 302.189 937.377 300.513 937.377 298.134L937.377 287.447L932.121 287.447L932.121 284.933L937.377 284.933L937.377 279.343L940.611 279.343Z" fill="#5daef9" opacity="1"/>
<path d="M971.18 293.16L971.18 294.742L957.17 294.742L957.17 294.847C957.076 297.531 957.589 299.459 958.708 300.63C959.827 301.802 961.406 302.388 963.445 302.388C964.477 302.388 965.555 302.224 966.68 301.896C967.805 301.568 969.006 301.07 970.283 300.402L970.283 303.619C969.053 304.123 967.866 304.501 966.724 304.753C965.581 305.005 964.477 305.13 963.41 305.13C960.352 305.13 957.961 304.213 956.238 302.38C954.516 300.546 953.654 298.017 953.654 294.795C953.654 291.654 954.498 289.146 956.186 287.271C957.873 285.396 960.123 284.459 962.936 284.459C965.443 284.459 967.421 285.308 968.868 287.007C970.315 288.707 971.086 290.757 971.18 293.16ZM967.945 292.211C967.805 290.851 967.31 289.676 966.46 288.686C965.61 287.696 964.389 287.201 962.795 287.201C961.236 287.201 959.953 287.716 958.945 288.748C957.937 289.779 957.387 290.939 957.293 292.228L967.945 292.211Z" fill="#5daef9" opacity="1"/>
<path d="M992.818 284.933L985.77 294.355L993.504 304.621L989.76 304.621L983.994 296.728L978.246 304.621L974.502 304.621L982.236 294.355L975.187 284.933L978.773 284.933L983.994 292.052L989.18 284.933L992.818 284.933Z" fill="#5daef9" opacity="1"/>
<path d="M1005.63 279.343L1005.63 284.933L1012.98 284.933L1012.98 287.447L1005.63 287.447L1005.63 298.134C1005.63 299.588 1005.91 300.601 1006.46 301.175C1007.01 301.75 1007.97 302.037 1009.34 302.037L1012.98 302.037L1012.98 304.621L1009.03 304.621C1006.6 304.621 1004.89 304.134 1003.89 303.162C1002.9 302.189 1002.4 300.513 1002.4 298.134L1002.4 287.447L997.143 287.447L997.143 284.933L1002.4 284.933L1002.4 279.343L1005.63 279.343Z" fill="#5daef9" opacity="1"/>
<path d="M1018.06 287.728L1018.06 284.529L1036.64 291.877L1036.64 294.795L1018.06 302.142L1018.06 298.925L1033 293.353L1018.06 287.728Z" fill="#5daef9" opacity="1"/>
<path d="M47.7304 331.728L32.789 337.353L47.7304 342.925L47.7304 346.142L29.1504 338.795L29.1504 335.877L47.7304 328.529L47.7304 331.728Z" fill="#5daef9" opacity="1"/>
<path d="M64.9043 322.377L68.2441 322.377L54.4277 351.961L51.0703 351.961L64.9043 322.377Z" fill="#5daef9" opacity="1"/>
<path d="M72.709 328.933L76.0664 328.933L81.7793 345.457L87.5097 328.933L90.8672 328.933L83.8711 348.621L79.7051 348.621L72.709 328.933Z" fill="#5daef9" opacity="1"/>
<path d="M109.728 329.619L109.728 332.783C108.803 332.244 107.871 331.839 106.934 331.57C105.996 331.3 105.041 331.166 104.068 331.166C102.603 331.166 101.511 331.403 100.79 331.878C100.069 332.352 99.709 333.076 99.709 334.048C99.709 334.927 99.9785 335.584 100.518 336.017C101.057 336.451 102.398 336.873 104.543 337.283L105.844 337.529C107.449 337.834 108.665 338.443 109.491 339.357C110.317 340.271 110.73 341.461 110.73 342.925C110.73 344.871 110.039 346.391 108.656 347.487C107.273 348.583 105.352 349.13 102.891 349.13C101.918 349.13 100.898 349.028 99.832 348.823C98.7656 348.618 97.6113 348.31 96.3691 347.9L96.3691 344.56C97.5762 345.181 98.7304 345.647 99.832 345.958C100.934 346.268 101.977 346.423 102.961 346.423C104.391 346.423 105.498 346.133 106.283 345.553C107.068 344.973 107.461 344.162 107.461 343.119C107.461 341.619 106.025 340.582 103.154 340.007L103.014 339.972L101.801 339.726C99.9375 339.363 98.5781 338.751 97.7226 337.889C96.8672 337.028 96.4394 335.853 96.4394 334.365C96.4394 332.478 97.0781 331.022 98.3554 329.997C99.6328 328.971 101.455 328.459 103.822 328.459C104.877 328.459 105.891 328.555 106.863 328.749C107.836 328.942 108.791 329.232 109.728 329.619Z" fill="#5daef9" opacity="1"/>
<path d="M125.092 323.343L125.092 328.933L132.439 328.933L132.439 331.447L125.092 331.447L125.092 342.134C125.092 343.588 125.367 344.601 125.918 345.175C126.469 345.75 127.43 346.037 128.801 346.037L132.439 346.037L132.439 348.621L128.484 348.621C126.059 348.621 124.348 348.134 123.352 347.162C122.355 346.189 121.857 344.513 121.857 342.134L121.857 331.447L116.602 331.447L116.602 328.933L121.857 328.933L121.857 323.343L125.092 323.343Z" fill="#5daef9" opacity="1"/>
<path d="M148.312 338.724L147.24 338.724C145.353 338.724 143.933 339.055 142.978 339.717C142.022 340.38 141.545 341.367 141.545 342.679C141.545 343.863 141.902 344.783 142.617 345.439C143.332 346.095 144.322 346.423 145.588 346.423C147.369 346.423 148.77 345.805 149.789 344.569C150.809 343.333 151.324 341.625 151.336 339.445L151.336 338.724L148.312 338.724ZM154.588 337.388L154.588 348.621L151.336 348.621L151.336 345.703C150.645 346.875 149.774 347.739 148.726 348.296C147.677 348.852 146.402 349.13 144.902 349.13C142.898 349.13 141.299 348.565 140.103 347.434C138.908 346.303 138.311 344.789 138.311 342.89C138.311 340.699 139.046 339.035 140.517 337.898C141.987 336.761 144.146 336.193 146.994 336.193L151.336 336.193L151.336 335.683C151.324 334.113 150.926 332.973 150.141 332.264C149.355 331.555 148.102 331.201 146.379 331.201C145.277 331.201 144.164 331.359 143.039 331.675C141.914 331.992 140.818 332.455 139.752 333.064L139.752 329.83C140.947 329.373 142.093 329.03 143.188 328.801C144.284 328.573 145.348 328.459 146.379 328.459C148.008 328.459 149.399 328.699 150.554 329.179C151.708 329.66 152.643 330.38 153.357 331.341C153.803 331.927 154.119 332.651 154.307 333.512C154.494 334.374 154.588 335.666 154.588 337.388Z" fill="#5daef9" opacity="1"/>
<path d="M176.297 347.619C175.43 348.123 174.536 348.501 173.616 348.753C172.696 349.005 171.756 349.13 170.795 349.13C167.748 349.13 165.366 348.216 163.649 346.388C161.933 344.56 161.074 342.029 161.074 338.795C161.074 335.56 161.933 333.029 163.649 331.201C165.366 329.373 167.748 328.459 170.795 328.459C171.744 328.459 172.67 328.582 173.572 328.828C174.475 329.074 175.383 329.455 176.297 329.97L176.297 333.363C175.441 332.601 174.583 332.05 173.722 331.711C172.86 331.371 171.885 331.201 170.795 331.201C168.768 331.201 167.209 331.857 166.119 333.17C165.029 334.482 164.484 336.357 164.484 338.795C164.484 341.22 165.032 343.092 166.128 344.411C167.224 345.729 168.779 346.388 170.795 346.388C171.92 346.388 172.928 346.215 173.818 345.87C174.709 345.524 175.535 344.988 176.297 344.261L176.297 347.619Z" fill="#5daef9" opacity="1"/>
<path d="M183.469 321.269L186.809 321.269L186.809 337.107L195.299 328.933L199.236 328.933L191.484 336.351L200.449 348.621L196.494 348.621L189.217 338.461L186.809 340.728L186.809 348.621L183.469 348.621L183.469 321.269Z" fill="#5daef9" opacity="1"/>
<path d="M202.541 331.728L202.541 328.529L221.121 335.877L221.121 338.795L202.541 346.142L202.541 342.925L217.482 337.353L202.541 331.728Z" fill="#5daef9" opacity="1"/>
</g>
</g>
</svg>
